<svg version="1.1" id="Layer_1" xmlns="http://www.w3.org/2000/svg" xmlns:xlink="http://www.w3.org/1999/xlink" x="0px" y="0px"
	 width="100%" viewBox="0 0 649 422" enable-background="new 0 0 649 422" xml:space="preserve">
<path fill="#000000" opacity="1.000000" stroke="none" 
	d="
M362.000000,423.000000 
	C241.361359,423.000000 121.222717,423.000000 1.042040,423.000000 
	C1.042040,282.394165 1.042040,141.788345 1.042040,1.091252 
	C217.222015,1.091252 433.444061,1.091252 649.833069,1.091252 
	C649.833069,141.666519 649.833069,282.333221 649.833069,423.000000 
	C554.121643,423.000000 458.310822,423.000000 362.000000,423.000000 
M446.712036,228.003922 
	C446.142548,228.601990 445.084137,229.194260 445.076965,229.799011 
	C444.970520,238.745956 445.003540,247.694565 445.003540,256.998901 
	C450.879852,256.998901 456.338776,257.025940 461.796722,256.965790 
	C462.504700,256.957977 463.191559,256.426697 463.916595,256.266876 
	C465.280334,255.966248 467.017120,255.098770 467.986511,255.615555 
	C478.563080,261.253937 489.877869,260.148071 500.592346,257.756927 
	C522.010376,252.977066 527.454468,230.263397 517.858704,214.840134 
	C512.253906,205.831528 502.112518,204.170273 492.636688,202.029358 
	C484.633575,200.221191 476.498230,198.942169 468.593658,196.794861 
	C466.709930,196.283142 464.707550,193.410675 464.270721,191.309891 
	C463.956055,189.796677 465.712067,186.953979 467.297028,186.098450 
	C474.612762,182.149612 490.235474,183.385910 495.884369,191.406784 
	C496.406342,192.147919 497.501434,192.910431 498.347321,192.929886 
	C504.123474,193.062805 509.904144,192.999527 515.765747,192.999527 
	C515.765747,184.796188 515.765747,177.059143 515.765747,169.001266 
	C510.074280,169.001266 504.603485,168.842056 499.151337,169.090683 
	C497.329437,169.173752 495.222382,171.271744 493.813141,170.789703 
	C484.915924,167.746399 475.967621,166.556778 466.607880,167.953644 
	C457.754242,169.274979 450.172028,172.530426 444.948212,180.192093 
	C444.014954,181.560883 442.688599,182.661621 440.740173,184.745590 
	C440.740173,178.655136 440.740173,173.907639 440.740173,168.776031 
	C434.974884,168.776031 429.565033,168.776031 423.813446,168.776031 
	C423.813446,157.983749 423.813446,147.588028 423.813446,136.773972 
	C422.503998,137.324814 421.546173,137.538712 420.813385,138.065613 
	C414.245789,142.787704 407.866119,147.791031 401.110809,152.223312 
	C398.072632,154.216721 397.813599,156.573334 397.965790,159.604614 
	C398.120697,162.690125 398.000000,165.789474 398.000000,169.257050 
	C393.946411,169.257050 390.534515,169.257050 387.323669,169.257050 
	C387.323669,175.399948 387.323669,181.143646 387.323669,187.264618 
	C391.059113,187.264618 394.471161,187.264618 398.000000,187.264618 
	C398.000000,195.477264 397.874542,203.299026 398.030914,211.115128 
	C398.239166,221.525375 398.557465,231.936295 399.041565,242.337021 
	C399.327393,248.478516 404.575134,255.173843 410.446381,256.759125 
	C420.228302,259.400330 429.768127,257.713196 439.080200,254.333862 
	C439.888977,254.040344 440.886169,252.852524 440.913483,252.050079 
	C441.082336,247.087860 440.998352,242.117050 440.998352,236.780258 
	C439.602295,237.156830 438.698792,237.401733 437.794617,237.644272 
	C428.685547,240.087601 424.031525,236.671661 424.000793,227.517914 
	C423.995209,225.851776 424.000000,224.185608 424.000000,222.519455 
	C424.000000,210.755569 424.000000,198.991669 424.000000,187.266098 
	C430.251038,187.266098 435.942627,187.266098 441.363312,187.266098 
	C440.414703,195.579071 441.127991,202.960983 447.496063,209.094711 
	C454.970764,216.294388 464.415649,218.706085 474.005219,221.010681 
	C481.330658,222.771133 488.790131,224.167099 495.893829,226.592545 
	C501.091034,228.367035 501.639771,235.243027 497.066681,238.343033 
	C487.863770,244.581451 472.445068,243.469757 467.089569,233.870255 
	C463.431244,227.312866 459.302277,228.053345 454.175690,228.003510 
	C452.009918,227.982468 449.843719,228.000183 446.712036,228.003922 
M200.000000,215.499939 
	C200.000000,193.741638 200.000000,171.983337 200.000000,150.283173 
	C208.305389,150.283173 216.044434,150.283173 224.173569,150.283173 
	C224.173569,155.305756 224.173569,160.055054 224.173569,164.711548 
	C230.314957,164.711548 236.052429,164.711548 241.710983,164.711548 
	C241.710983,152.683838 241.710983,140.946686 241.710983,129.281128 
	C203.690720,129.281128 165.960129,129.281128 128.280121,129.281128 
	C128.280121,145.966095 128.280121,162.368439 128.280121,178.717468 
	C134.635040,178.717468 140.706314,178.717468 147.169586,178.717468 
	C147.169586,169.030807 147.169586,159.620758 147.169586,150.285828 
	C154.976044,150.285828 162.381546,150.285828 169.719284,150.285828 
	C169.719284,179.638443 169.719284,208.704376 169.719284,238.167023 
	C163.033585,238.167023 156.623291,238.167023 150.285400,238.167023 
	C150.285400,244.640854 150.285400,250.712280 150.285400,256.717773 
	C173.639236,256.717773 196.706604,256.717773 219.715424,256.717773 
	C219.715424,250.360672 219.715424,244.289261 219.715424,237.825256 
	C213.025787,237.825256 206.616074,237.825256 200.000000,237.825256 
	C200.000000,230.452194 200.000000,223.476044 200.000000,215.499939 
M290.262085,187.058151 
	C290.498810,187.463425 290.941040,187.868011 290.942444,188.274094 
	C290.987671,201.431412 291.058990,214.589722 290.896423,227.745041 
	C290.879639,229.102722 289.757477,231.032639 288.585907,231.680984 
	C284.982788,233.674957 281.233490,235.600464 277.308105,236.772751 
	C270.606598,238.774094 263.908356,235.312744 263.069244,229.671631 
	C262.444885,225.474167 262.108704,221.203156 262.046051,216.958969 
	C261.901093,207.134506 262.000000,197.306442 262.000000,187.479828 
	C262.000000,181.385925 262.000000,175.292007 262.000000,169.286591 
	C248.681290,169.286591 235.947769,169.286591 223.285919,169.286591 
	C223.285919,175.315552 223.285919,181.052429 223.285919,187.178772 
	C227.977432,187.178772 232.392258,187.178772 237.000000,187.178772 
	C237.000000,203.374359 236.800018,219.178421 237.070755,234.974411 
	C237.249222,245.387497 243.264328,253.918564 253.633347,256.812012 
	C262.940369,259.409088 271.935730,257.796204 280.551910,253.781570 
	C283.907745,252.217987 287.139618,250.388428 291.112549,248.324326 
	C291.112549,251.517334 291.112549,253.609299 291.112549,255.766113 
	C303.198029,255.766113 314.937439,255.766113 326.767944,255.766113 
	C326.767944,250.123764 326.767944,244.718140 326.767944,238.926392 
	C323.467865,238.926392 320.385742,238.926392 316.942108,238.926392 
	C316.942108,215.475433 316.942108,192.410843 316.942108,169.216095 
	C303.491150,169.216095 290.425598,169.216095 277.215820,169.216095 
	C277.215820,175.169968 277.215820,180.906250 277.215820,187.004044 
	C281.380066,187.004044 285.338776,187.004044 290.262085,187.058151 
M385.030731,150.343155 
	C386.178040,150.568130 387.710571,151.376816 388.406372,150.917633 
	C391.511963,148.868179 394.456085,146.548676 397.307343,144.147202 
	C399.640656,142.181915 401.760437,139.963074 403.974854,137.856628 
	C401.339020,135.759964 398.723450,133.636795 396.048523,131.591263 
	C395.571594,131.226547 394.816559,131.251556 394.243988,130.981888 
	C386.865753,127.506989 378.982635,127.642410 371.159637,128.052979 
	C357.216278,128.784760 346.435791,136.976440 344.066681,151.444153 
	C343.124908,157.195587 342.972229,163.076263 342.426849,169.278564 
	C338.590973,169.278564 334.847961,169.278564 331.331848,169.278564 
	C331.331848,175.418259 331.331848,181.160706 331.331848,187.276627 
	C335.406281,187.276627 339.149292,187.276627 342.679382,187.276627 
	C342.679382,204.736450 342.679382,221.801605 342.679382,239.253357 
	C338.615814,239.253357 334.872803,239.253357 331.322266,239.253357 
	C331.322266,245.055832 331.322266,250.461090 331.322266,255.689133 
	C348.708984,255.689133 365.772034,255.689133 382.690643,255.689133 
	C382.690643,249.969269 382.690643,244.564102 382.690643,238.774719 
	C377.973572,238.774719 373.563751,238.774719 369.298096,238.774719 
	C369.298096,221.314499 369.298096,204.251022 369.298096,186.797455 
	C374.003082,186.797455 378.415771,186.797455 382.703003,186.797455 
	C382.703003,180.660278 382.703003,174.923935 382.703003,168.799835 
	C377.999207,168.799835 373.586243,168.799835 369.000031,168.799835 
	C369.000031,163.595901 368.864349,158.780594 369.039185,153.976593 
	C369.205353,149.412094 371.218262,145.552750 375.708984,144.228699 
	C380.183136,142.909546 383.069916,145.723846 385.030731,150.343155 
M351.499207,296.000000 
	C353.325653,296.000000 355.152130,296.000000 355.694000,296.000000 
	C354.918579,292.718384 354.290161,290.058777 353.661713,287.399170 
	C354.239532,287.157227 354.817352,286.915314 355.395172,286.673370 
	C357.185791,289.217834 358.984406,291.756744 360.765076,294.308136 
	C363.255219,297.876190 366.159088,295.468506 368.916382,295.638458 
	C365.973206,292.045990 363.388184,288.890717 360.803192,285.735443 
	C361.403717,285.732635 362.004242,285.729858 362.604797,285.727081 
	C363.341003,282.653229 365.105408,279.339050 364.462311,276.587585 
	C364.011963,274.660797 360.434174,272.668518 357.966919,272.194092 
	C354.155121,271.461121 350.098572,272.000916 345.896973,272.000916 
	C350.721191,280.149445 349.985535,287.874817 346.905884,296.000000 
	C347.653412,296.000000 349.119812,296.000000 351.499207,296.000000 
M216.991150,273.406067 
	C214.434418,272.769745 211.877701,272.133423 209.320969,271.497101 
	C209.059601,271.848938 208.798218,272.200745 208.536850,272.552582 
	C212.613449,276.161987 213.100006,280.213135 210.651093,285.417175 
	C208.835754,283.222137 207.444305,281.462402 205.971268,279.773804 
	C202.291382,275.555328 199.607620,269.361816 191.684128,272.777618 
	C199.647171,279.915070 195.381760,287.855164 193.562241,295.653778 
	C195.838150,295.653778 198.356750,295.653778 201.461304,295.653778 
	C195.628204,291.324463 198.844955,285.979584 197.903000,280.333801 
	C205.049942,284.809662 207.078094,293.409912 215.000000,296.488159 
	C215.000000,289.992645 214.867676,284.343872 215.089050,278.708984 
	C215.147522,277.220367 216.296814,275.774628 216.991150,273.406067 
M309.997955,292.129456 
	C309.011230,293.244202 308.024536,294.358948 306.937805,295.586731 
	C307.584869,295.749969 308.052094,295.968842 308.520203,295.970642 
	C314.500305,295.993835 320.480560,295.985931 326.768372,295.985931 
	C327.225403,293.658081 327.655609,291.466888 328.289490,288.238281 
	C323.810455,290.825897 321.305206,296.335510 316.616180,293.509674 
	C314.919983,292.487488 315.112061,288.332001 314.442505,285.606232 
	C314.884460,285.254883 315.326385,284.903503 315.768341,284.552155 
	C317.685699,285.646423 319.603088,286.740692 321.534973,287.843262 
	C321.534973,284.886749 321.534973,281.975525 321.534973,278.689301 
	C319.374115,280.543793 317.676483,282.000732 315.205444,284.121399 
	C315.205444,280.149170 315.205444,277.705139 315.205444,273.822235 
	C319.559540,275.793457 323.144043,277.416260 326.728577,279.039062 
	C327.087616,278.549774 327.446686,278.060486 327.805756,277.571198 
	C326.083130,275.714355 324.559021,272.554169 322.599030,272.255585 
	C317.582855,271.491425 312.372742,272.000671 307.050293,272.000671 
	C307.050293,273.015411 306.925293,274.174011 307.068542,274.208160 
	C310.903778,275.123138 309.961121,278.148804 309.990112,280.704468 
	C310.029755,284.199066 309.999939,287.694458 309.997955,292.129456 
M152.998840,276.985596 
	C152.999359,280.474152 152.773071,283.981567 153.061493,287.446136 
	C153.376175,291.226471 154.373169,294.860046 158.783768,295.991180 
	C168.718399,298.539124 172.216171,292.534576 172.092896,285.496552 
	C172.015579,281.082581 170.250443,276.084412 176.076721,272.286957 
	C171.970123,272.286957 169.095779,272.286957 167.329132,272.286957 
	C167.888397,277.445099 168.651627,282.557281 168.927811,287.695679 
	C169.118256,291.239288 166.876022,293.859406 163.460892,293.829559 
	C160.055878,293.799805 157.818268,291.158447 158.076859,287.616302 
	C158.433289,282.734161 155.932419,277.191772 160.955460,273.209290 
	C161.045944,273.137512 160.808624,272.652252 160.711990,272.317322 
	C157.179871,272.317322 153.659607,272.317322 150.139359,272.317322 
	C149.761642,272.803009 149.383942,273.288727 149.006241,273.774414 
	C150.331238,274.545013 151.656235,275.315613 152.998840,276.985596 
M282.846252,272.001617 
	C282.246948,272.695740 281.647644,273.389832 281.048340,274.083923 
	C283.624329,275.864349 281.862549,277.683289 281.148438,279.548126 
	C280.198517,282.028748 279.369690,284.555786 277.972931,288.531219 
	C276.054108,283.255585 274.615906,279.301361 273.491211,276.209137 
	C274.603027,274.774200 275.383301,273.767151 276.951233,271.743530 
	C272.002899,272.031860 268.630432,272.228363 266.068085,272.377655 
	C269.560211,281.086517 272.760284,289.066986 276.245605,297.758850 
	C280.797852,288.631653 284.956787,280.293030 289.092926,272.000092 
	C287.698639,272.000092 285.710022,272.000092 282.846252,272.001617 
M494.084747,275.003815 
	C501.641968,282.904907 503.206390,289.200348 499.147552,295.725311 
	C502.429718,295.725311 505.646698,295.725311 509.192078,295.725311 
	C505.732574,291.393280 506.215546,287.066681 508.558563,283.050690 
	C510.719940,279.346039 513.522949,276.015747 516.233948,272.256104 
	C513.278198,272.256104 510.716248,272.256104 507.543030,272.256104 
	C511.209839,277.295105 507.305420,279.397095 503.955597,283.236237 
	C503.139832,278.826355 502.538177,275.574005 501.877228,272.001007 
	C500.077240,272.001007 497.563751,271.794098 495.124573,272.128662 
	C494.404449,272.227417 493.894104,273.855438 494.084747,275.003815 
M454.687439,275.870514 
	C456.318054,275.502716 457.948669,275.134918 460.000000,274.672211 
	C460.000000,280.003723 460.190430,284.655365 459.913177,289.278961 
	C459.789581,291.340210 458.724854,293.345032 458.065033,295.446167 
	C460.720337,295.446167 464.329895,295.446167 467.594391,295.446167 
	C462.485870,288.868622 466.259216,281.709351 464.883606,275.185181 
	C465.281464,274.857513 465.679352,274.529877 466.077240,274.202209 
	C468.901581,275.823486 471.725922,277.444763 474.867676,279.248260 
	C474.363342,276.036804 473.973206,273.552643 473.655853,271.531860 
	C466.497986,271.531860 459.555328,271.531860 452.076080,271.531860 
	C451.733673,273.647827 451.317413,276.219971 450.901184,278.792084 
	C451.344177,278.890411 451.787140,278.988739 452.230133,279.087067 
	C452.838562,278.197144 453.447021,277.307220 454.687439,275.870514 
M394.626038,286.965576 
	C395.745972,288.542389 396.990601,290.057220 397.840912,291.768036 
	C397.957947,292.003510 395.903503,293.997925 395.226868,293.813232 
	C393.584137,293.364868 392.106842,292.186035 390.681854,291.139557 
	C390.252716,290.824402 390.374237,289.813141 389.961212,289.410065 
	C389.290283,288.755280 388.386627,288.338959 387.260223,287.615997 
	C387.260223,290.981354 387.260223,293.410400 387.260223,295.864014 
	C389.158356,295.977203 390.908600,295.741547 392.419159,296.236877 
	C396.555634,297.593201 399.836853,296.148621 401.601013,292.707062 
	C403.852020,288.315765 401.766693,283.858643 397.256165,281.729034 
	C395.959656,281.116913 394.285461,280.902100 393.398499,279.939362 
	C392.527191,278.993591 392.436188,277.328857 392.002777,275.979645 
	C393.555481,275.710480 395.286499,274.896301 396.609436,275.329254 
	C397.869751,275.741669 398.704163,277.455444 399.779327,278.656860 
	C399.779327,276.429230 399.779327,274.359711 399.779327,272.000305 
	C397.589661,272.000305 395.616058,272.038361 393.644409,271.991882 
	C390.230835,271.911377 387.493713,273.751617 387.313721,276.760284 
	C387.161499,279.304626 388.851227,282.119293 390.234833,284.521027 
	C390.835571,285.563751 392.713165,285.870880 394.626038,286.965576 
M430.000031,281.606262 
	C430.502350,278.514191 431.004669,275.422089 431.505341,272.340179 
	C428.136047,272.340179 424.605103,272.340179 421.129944,272.340179 
	C422.511566,274.945496 424.306885,277.170898 424.854767,279.669769 
	C425.481628,282.528992 425.386383,285.698120 424.882721,288.607574 
	C424.447937,291.119049 423.000671,293.455261 422.155029,295.497101 
	C425.104858,295.497101 429.018677,295.497101 432.077148,295.497101 
	C431.312653,293.498108 430.317810,291.826935 430.082001,290.054810 
	C429.755493,287.601044 430.000000,285.071289 430.000031,281.606262 
M244.000000,287.394409 
	C244.339386,282.269989 242.283768,276.738495 248.185516,272.000000 
	C244.770493,272.000000 242.969559,272.000000 241.168625,272.000000 
	C239.461823,272.000000 237.755005,272.000000 235.717880,272.000000 
	C240.201797,281.612732 240.223801,291.950806 235.892990,295.615723 
	C239.713486,295.615723 243.309326,295.615723 245.653824,295.615723 
	C245.062607,293.020020 244.531311,290.687378 244.000000,287.394409 
z"/>
<path fill="#FFFFFF" opacity="1.000000" stroke="none" 
	d="
M447.194885,228.002106 
	C449.843719,228.000183 452.009918,227.982468 454.175690,228.003510 
	C459.302277,228.053345 463.431244,227.312866 467.089569,233.870255 
	C472.445068,243.469757 487.863770,244.581451 497.066681,238.343033 
	C501.639771,235.243027 501.091034,228.367035 495.893829,226.592545 
	C488.790131,224.167099 481.330658,222.771133 474.005219,221.010681 
	C464.415649,218.706085 454.970764,216.294388 447.496063,209.094711 
	C441.127991,202.960983 440.414703,195.579071 441.363312,187.266098 
	C435.942627,187.266098 430.251038,187.266098 424.000000,187.266098 
	C424.000000,198.991669 424.000000,210.755569 424.000000,222.519455 
	C424.000000,224.185608 423.995209,225.851776 424.000793,227.517914 
	C424.031525,236.671661 428.685547,240.087601 437.794617,237.644272 
	C438.698792,237.401733 439.602295,237.156830 440.998352,236.780258 
	C440.998352,242.117050 441.082336,247.087860 440.913483,252.050079 
	C440.886169,252.852524 439.888977,254.040344 439.080200,254.333862 
	C429.768127,257.713196 420.228302,259.400330 410.446381,256.759125 
	C404.575134,255.173843 399.327393,248.478516 399.041565,242.337021 
	C398.557465,231.936295 398.239166,221.525375 398.030914,211.115128 
	C397.874542,203.299026 398.000000,195.477264 398.000000,187.264618 
	C394.471161,187.264618 391.059113,187.264618 387.323669,187.264618 
	C387.323669,181.143646 387.323669,175.399948 387.323669,169.257050 
	C390.534515,169.257050 393.946411,169.257050 398.000000,169.257050 
	C398.000000,165.789474 398.120697,162.690125 397.965790,159.604614 
	C397.813599,156.573334 398.072632,154.216721 401.110809,152.223312 
	C407.866119,147.791031 414.245789,142.787704 420.813385,138.065613 
	C421.546173,137.538712 422.503998,137.324814 423.813446,136.773972 
	C423.813446,147.588028 423.813446,157.983749 423.813446,168.776031 
	C429.565033,168.776031 434.974884,168.776031 440.740173,168.776031 
	C440.740173,173.907639 440.740173,178.655136 440.740173,184.745590 
	C442.688599,182.661621 444.014954,181.560883 444.948212,180.192093 
	C450.172028,172.530426 457.754242,169.274979 466.607880,167.953644 
	C475.967621,166.556778 484.915924,167.746399 493.813141,170.789703 
	C495.222382,171.271744 497.329437,169.173752 499.151337,169.090683 
	C504.603485,168.842056 510.074280,169.001266 515.765747,169.001266 
	C515.765747,177.059143 515.765747,184.796188 515.765747,192.999527 
	C509.904144,192.999527 504.123474,193.062805 498.347321,192.929886 
	C497.501434,192.910431 496.406342,192.147919 495.884369,191.406784 
	C490.235474,183.385910 474.612762,182.149612 467.297028,186.098450 
	C465.712067,186.953979 463.956055,189.796677 464.270721,191.309891 
	C464.707550,193.410675 466.709930,196.283142 468.593658,196.794861 
	C476.498230,198.942169 484.633575,200.221191 492.636688,202.029358 
	C502.112518,204.170273 512.253906,205.831528 517.858704,214.840134 
	C527.454468,230.263397 522.010376,252.977066 500.592346,257.756927 
	C489.877869,260.148071 478.563080,261.253937 467.986511,255.615555 
	C467.017120,255.098770 465.280334,255.966248 463.916595,256.266876 
	C463.191559,256.426697 462.504700,256.957977 461.796722,256.965790 
	C456.338776,257.025940 450.879852,256.998901 445.003540,256.998901 
	C445.003540,247.694565 444.970520,238.745956 445.076965,229.799011 
	C445.084137,229.194260 446.142548,228.601990 447.194885,228.002106 
z"/>
<path fill="#FFFFFF" opacity="1.000000" stroke="none" 
	d="
M200.000000,215.999908 
	C200.000000,223.476044 200.000000,230.452194 200.000000,237.825256 
	C206.616074,237.825256 213.025787,237.825256 219.715424,237.825256 
	C219.715424,244.289261 219.715424,250.360672 219.715424,256.717773 
	C196.706604,256.717773 173.639236,256.717773 150.285400,256.717773 
	C150.285400,250.712280 150.285400,244.640854 150.285400,238.167023 
	C156.623291,238.167023 163.033585,238.167023 169.719284,238.167023 
	C169.719284,208.704376 169.719284,179.638443 169.719284,150.285828 
	C162.381546,150.285828 154.976044,150.285828 147.169586,150.285828 
	C147.169586,159.620758 147.169586,169.030807 147.169586,178.717468 
	C140.706314,178.717468 134.635040,178.717468 128.280121,178.717468 
	C128.280121,162.368439 128.280121,145.966095 128.280121,129.281128 
	C165.960129,129.281128 203.690720,129.281128 241.710983,129.281128 
	C241.710983,140.946686 241.710983,152.683838 241.710983,164.711548 
	C236.052429,164.711548 230.314957,164.711548 224.173569,164.711548 
	C224.173569,160.055054 224.173569,155.305756 224.173569,150.283173 
	C216.044434,150.283173 208.305389,150.283173 200.000000,150.283173 
	C200.000000,171.983337 200.000000,193.741638 200.000000,215.999908 
z"/>
<path fill="#FFFFFF" opacity="1.000000" stroke="none" 
	d="
M289.779785,187.031097 
	C285.338776,187.004044 281.380066,187.004044 277.215820,187.004044 
	C277.215820,180.906250 277.215820,175.169968 277.215820,169.216095 
	C290.425598,169.216095 303.491150,169.216095 316.942108,169.216095 
	C316.942108,192.410843 316.942108,215.475433 316.942108,238.926392 
	C320.385742,238.926392 323.467865,238.926392 326.767944,238.926392 
	C326.767944,244.718140 326.767944,250.123764 326.767944,255.766113 
	C314.937439,255.766113 303.198029,255.766113 291.112549,255.766113 
	C291.112549,253.609299 291.112549,251.517334 291.112549,248.324326 
	C287.139618,250.388428 283.907745,252.217987 280.551910,253.781570 
	C271.935730,257.796204 262.940369,259.409088 253.633347,256.812012 
	C243.264328,253.918564 237.249222,245.387497 237.070755,234.974411 
	C236.800018,219.178421 237.000000,203.374359 237.000000,187.178772 
	C232.392258,187.178772 227.977432,187.178772 223.285919,187.178772 
	C223.285919,181.052429 223.285919,175.315552 223.285919,169.286591 
	C235.947769,169.286591 248.681290,169.286591 262.000000,169.286591 
	C262.000000,175.292007 262.000000,181.385925 262.000000,187.479828 
	C262.000000,197.306442 261.901093,207.134506 262.046051,216.958969 
	C262.108704,221.203156 262.444885,225.474167 263.069244,229.671631 
	C263.908356,235.312744 270.606598,238.774094 277.308105,236.772751 
	C281.233490,235.600464 284.982788,233.674957 288.585907,231.680984 
	C289.757477,231.032639 290.879639,229.102722 290.896423,227.745041 
	C291.058990,214.589722 290.987671,201.431412 290.942444,188.274094 
	C290.941040,187.868011 290.498810,187.463425 289.779785,187.031097 
z"/>
<path fill="#FFFFFF" opacity="1.000000" stroke="none" 
	d="
M384.996796,149.966675 
	C383.069916,145.723846 380.183136,142.909546 375.708984,144.228699 
	C371.218262,145.552750 369.205353,149.412094 369.039185,153.976593 
	C368.864349,158.780594 369.000031,163.595901 369.000031,168.799835 
	C373.586243,168.799835 377.999207,168.799835 382.703003,168.799835 
	C382.703003,174.923935 382.703003,180.660278 382.703003,186.797455 
	C378.415771,186.797455 374.003082,186.797455 369.298096,186.797455 
	C369.298096,204.251022 369.298096,221.314499 369.298096,238.774719 
	C373.563751,238.774719 377.973572,238.774719 382.690643,238.774719 
	C382.690643,244.564102 382.690643,249.969269 382.690643,255.689133 
	C365.772034,255.689133 348.708984,255.689133 331.322266,255.689133 
	C331.322266,250.461090 331.322266,245.055832 331.322266,239.253357 
	C334.872803,239.253357 338.615814,239.253357 342.679382,239.253357 
	C342.679382,221.801605 342.679382,204.736450 342.679382,187.276627 
	C339.149292,187.276627 335.406281,187.276627 331.331848,187.276627 
	C331.331848,181.160706 331.331848,175.418259 331.331848,169.278564 
	C334.847961,169.278564 338.590973,169.278564 342.426849,169.278564 
	C342.972229,163.076263 343.124908,157.195587 344.066681,151.444153 
	C346.435791,136.976440 357.216278,128.784760 371.159637,128.052979 
	C378.982635,127.642410 386.865753,127.506989 394.243988,130.981888 
	C394.816559,131.251556 395.571594,131.226547 396.048523,131.591263 
	C398.723450,133.636795 401.339020,135.759964 403.974854,137.856628 
	C401.760437,139.963074 399.640656,142.181915 397.307343,144.147202 
	C394.456085,146.548676 391.511963,148.868179 388.406372,150.917633 
	C387.710571,151.376816 386.178040,150.568130 384.996796,149.966675 
z"/>
<path fill="#FFFFFF" opacity="1.000000" stroke="none" 
	d="
M351.042694,296.000000 
	C349.119812,296.000000 347.653412,296.000000 346.905884,296.000000 
	C349.985535,287.874817 350.721191,280.149445 345.896973,272.000916 
	C350.098572,272.000916 354.155121,271.461121 357.966919,272.194092 
	C360.434174,272.668518 364.011963,274.660797 364.462311,276.587585 
	C365.105408,279.339050 363.341003,282.653229 362.604797,285.727081 
	C362.004242,285.729858 361.403717,285.732635 360.803192,285.735443 
	C363.388184,288.890717 365.973206,292.045990 368.916382,295.638458 
	C366.159088,295.468506 363.255219,297.876190 360.765076,294.308136 
	C358.984406,291.756744 357.185791,289.217834 355.395172,286.673370 
	C354.817352,286.915314 354.239532,287.157227 353.661713,287.399170 
	C354.290161,290.058777 354.918579,292.718384 355.694000,296.000000 
	C355.152130,296.000000 353.325653,296.000000 351.042694,296.000000 
M356.755493,283.768616 
	C357.733337,281.604309 359.206940,279.486694 359.417572,277.250122 
	C359.490387,276.477325 356.422394,275.408691 354.000031,274.024261 
	C354.000031,277.054718 353.759705,278.875793 354.081909,280.591217 
	C354.308289,281.796356 355.300629,282.857605 356.755493,283.768616 
z"/>
<path fill="#FFFFFF" opacity="1.000000" stroke="none" 
	d="
M216.968185,273.857635 
	C216.296814,275.774628 215.147522,277.220367 215.089050,278.708984 
	C214.867676,284.343872 215.000000,289.992645 215.000000,296.488159 
	C207.078094,293.409912 205.049942,284.809662 197.903000,280.333801 
	C198.844955,285.979584 195.628204,291.324463 201.461304,295.653778 
	C198.356750,295.653778 195.838150,295.653778 193.562241,295.653778 
	C195.381760,287.855164 199.647171,279.915070 191.684128,272.777618 
	C199.607620,269.361816 202.291382,275.555328 205.971268,279.773804 
	C207.444305,281.462402 208.835754,283.222137 210.651093,285.417175 
	C213.100006,280.213135 212.613449,276.161987 208.536850,272.552582 
	C208.798218,272.200745 209.059601,271.848938 209.320969,271.497101 
	C211.877701,272.133423 214.434418,272.769745 216.968185,273.857635 
z"/>
<path fill="#FFFFFF" opacity="1.000000" stroke="none" 
	d="
M309.998932,291.659485 
	C309.999939,287.694458 310.029755,284.199066 309.990112,280.704468 
	C309.961121,278.148804 310.903778,275.123138 307.068542,274.208160 
	C306.925293,274.174011 307.050293,273.015411 307.050293,272.000671 
	C312.372742,272.000671 317.582855,271.491425 322.599030,272.255585 
	C324.559021,272.554169 326.083130,275.714355 327.805756,277.571198 
	C327.446686,278.060486 327.087616,278.549774 326.728577,279.039062 
	C323.144043,277.416260 319.559540,275.793457 315.205444,273.822235 
	C315.205444,277.705139 315.205444,280.149170 315.205444,284.121399 
	C317.676483,282.000732 319.374115,280.543793 321.534973,278.689301 
	C321.534973,281.975525 321.534973,284.886749 321.534973,287.843262 
	C319.603088,286.740692 317.685699,285.646423 315.768341,284.552155 
	C315.326385,284.903503 314.884460,285.254883 314.442505,285.606232 
	C315.112061,288.332001 314.919983,292.487488 316.616180,293.509674 
	C321.305206,296.335510 323.810455,290.825897 328.289490,288.238281 
	C327.655609,291.466888 327.225403,293.658081 326.768372,295.985931 
	C320.480560,295.985931 314.500305,295.993835 308.520203,295.970642 
	C308.052094,295.968842 307.584869,295.749969 306.937805,295.586731 
	C308.024536,294.358948 309.011230,293.244202 309.998932,291.659485 
z"/>
<path fill="#FFFFFF" opacity="1.000000" stroke="none" 
	d="
M152.990036,276.535889 
	C151.656235,275.315613 150.331238,274.545013 149.006241,273.774414 
	C149.383942,273.288727 149.761642,272.803009 150.139359,272.317322 
	C153.659607,272.317322 157.179871,272.317322 160.711990,272.317322 
	C160.808624,272.652252 161.045944,273.137512 160.955460,273.209290 
	C155.932419,277.191772 158.433289,282.734161 158.076859,287.616302 
	C157.818268,291.158447 160.055878,293.799805 163.460892,293.829559 
	C166.876022,293.859406 169.118256,291.239288 168.927811,287.695679 
	C168.651627,282.557281 167.888397,277.445099 167.329132,272.286957 
	C169.095779,272.286957 171.970123,272.286957 176.076721,272.286957 
	C170.250443,276.084412 172.015579,281.082581 172.092896,285.496552 
	C172.216171,292.534576 168.718399,298.539124 158.783768,295.991180 
	C154.373169,294.860046 153.376175,291.226471 153.061493,287.446136 
	C152.773071,283.981567 152.999359,280.474152 152.990036,276.535889 
z"/>
<path fill="#FFFFFF" opacity="1.000000" stroke="none" 
	d="
M283.283813,272.000854 
	C285.710022,272.000092 287.698639,272.000092 289.092926,272.000092 
	C284.956787,280.293030 280.797852,288.631653 276.245605,297.758850 
	C272.760284,289.066986 269.560211,281.086517 266.068085,272.377655 
	C268.630432,272.228363 272.002899,272.031860 276.951233,271.743530 
	C275.383301,273.767151 274.603027,274.774200 273.491211,276.209137 
	C274.615906,279.301361 276.054108,283.255585 277.972931,288.531219 
	C279.369690,284.555786 280.198517,282.028748 281.148438,279.548126 
	C281.862549,277.683289 283.624329,275.864349 281.048340,274.083923 
	C281.647644,273.389832 282.246948,272.695740 283.283813,272.000854 
z"/>
<path fill="#FFFFFF" opacity="1.000000" stroke="none" 
	d="
M493.686157,274.893250 
	C493.894104,273.855438 494.404449,272.227417 495.124573,272.128662 
	C497.563751,271.794098 500.077240,272.001007 501.877228,272.001007 
	C502.538177,275.574005 503.139832,278.826355 503.955597,283.236237 
	C507.305420,279.397095 511.209839,277.295105 507.543030,272.256104 
	C510.716248,272.256104 513.278198,272.256104 516.233948,272.256104 
	C513.522949,276.015747 510.719940,279.346039 508.558563,283.050690 
	C506.215546,287.066681 505.732574,291.393280 509.192078,295.725311 
	C505.646698,295.725311 502.429718,295.725311 499.147552,295.725311 
	C503.206390,289.200348 501.641968,282.904907 493.686157,274.893250 
z"/>
<path fill="#FFFFFF" opacity="1.000000" stroke="none" 
	d="
M454.371460,276.143921 
	C453.447021,277.307220 452.838562,278.197144 452.230133,279.087067 
	C451.787140,278.988739 451.344177,278.890411 450.901184,278.792084 
	C451.317413,276.219971 451.733673,273.647827 452.076080,271.531860 
	C459.555328,271.531860 466.497986,271.531860 473.655853,271.531860 
	C473.973206,273.552643 474.363342,276.036804 474.867676,279.248260 
	C471.725922,277.444763 468.901581,275.823486 466.077240,274.202209 
	C465.679352,274.529877 465.281464,274.857513 464.883606,275.185181 
	C466.259216,281.709351 462.485870,288.868622 467.594391,295.446167 
	C464.329895,295.446167 460.720337,295.446167 458.065033,295.446167 
	C458.724854,293.345032 459.789581,291.340210 459.913177,289.278961 
	C460.190430,284.655365 460.000000,280.003723 460.000000,274.672211 
	C457.948669,275.134918 456.318054,275.502716 454.371460,276.143921 
z"/>
<path fill="#FFFFFF" opacity="1.000000" stroke="none" 
	d="
M394.318420,286.738831 
	C392.713165,285.870880 390.835571,285.563751 390.234833,284.521027 
	C388.851227,282.119293 387.161499,279.304626 387.313721,276.760284 
	C387.493713,273.751617 390.230835,271.911377 393.644409,271.991882 
	C395.616058,272.038361 397.589661,272.000305 399.779327,272.000305 
	C399.779327,274.359711 399.779327,276.429230 399.779327,278.656860 
	C398.704163,277.455444 397.869751,275.741669 396.609436,275.329254 
	C395.286499,274.896301 393.555481,275.710480 392.002777,275.979645 
	C392.436188,277.328857 392.527191,278.993591 393.398499,279.939362 
	C394.285461,280.902100 395.959656,281.116913 397.256165,281.729034 
	C401.766693,283.858643 403.852020,288.315765 401.601013,292.707062 
	C399.836853,296.148621 396.555634,297.593201 392.419159,296.236877 
	C390.908600,295.741547 389.158356,295.977203 387.260223,295.864014 
	C387.260223,293.410400 387.260223,290.981354 387.260223,287.615997 
	C388.386627,288.338959 389.290283,288.755280 389.961212,289.410065 
	C390.374237,289.813141 390.252716,290.824402 390.681854,291.139557 
	C392.106842,292.186035 393.584137,293.364868 395.226868,293.813232 
	C395.903503,293.997925 397.957947,292.003510 397.840912,291.768036 
	C396.990601,290.057220 395.745972,288.542389 394.318420,286.738831 
z"/>
<path fill="#FFFFFF" opacity="1.000000" stroke="none" 
	d="
M430.000000,282.090179 
	C430.000000,285.071289 429.755493,287.601044 430.082001,290.054810 
	C430.317810,291.826935 431.312653,293.498108 432.077148,295.497101 
	C429.018677,295.497101 425.104858,295.497101 422.155029,295.497101 
	C423.000671,293.455261 424.447937,291.119049 424.882721,288.607574 
	C425.386383,285.698120 425.481628,282.528992 424.854767,279.669769 
	C424.306885,277.170898 422.511566,274.945496 421.129944,272.340179 
	C424.605103,272.340179 428.136047,272.340179 431.505341,272.340179 
	C431.004669,275.422089 430.502350,278.514191 430.000000,282.090179 
z"/>
<path fill="#FFFFFF" opacity="1.000000" stroke="none" 
	d="
M244.000000,287.874573 
	C244.531311,290.687378 245.062607,293.020020 245.653824,295.615723 
	C243.309326,295.615723 239.713486,295.615723 235.892990,295.615723 
	C240.223801,291.950806 240.201797,281.612732 235.717880,272.000000 
	C237.755005,272.000000 239.461823,272.000000 241.168625,272.000000 
	C242.969559,272.000000 244.770493,272.000000 248.185516,272.000000 
	C242.283768,276.738495 244.339386,282.269989 244.000000,287.874573 
z"/>
<path fill="#000000" opacity="1.000000" stroke="none" 
	d="
M356.353210,283.875854 
	C355.300629,282.857605 354.308289,281.796356 354.081909,280.591217 
	C353.759705,278.875793 354.000031,277.054718 354.000031,274.024261 
	C356.422394,275.408691 359.490387,276.477325 359.417572,277.250122 
	C359.206940,279.486694 357.733337,281.604309 356.353210,283.875854 
z"/>
</svg>